<?xml version="1.0" encoding="utf-8" standalone="no"?>
<!DOCTYPE svg PUBLIC "-//W3C//DTD SVG 1.1//EN"
  "http://www.w3.org/Graphics/SVG/1.1/DTD/svg11.dtd">
<svg xmlns:xlink="http://www.w3.org/1999/xlink" width="226.771654pt" height="192.755906pt" viewBox="0 0 226.771654 192.755906" xmlns="http://www.w3.org/2000/svg" version="1.1">
 <metadata>
  <rdf:RDF xmlns:dc="http://purl.org/dc/elements/1.1/" xmlns:cc="http://creativecommons.org/ns#" xmlns:rdf="http://www.w3.org/1999/02/22-rdf-syntax-ns#">
   <cc:Work>
    <dc:type rdf:resource="http://purl.org/dc/dcmitype/StillImage"/>
    <dc:date>2025-12-21T10:49:49.668235</dc:date>
    <dc:format>image/svg+xml</dc:format>
    <dc:creator>
     <cc:Agent>
      <dc:title>Matplotlib v3.10.3, https://matplotlib.org/</dc:title>
     </cc:Agent>
    </dc:creator>
   </cc:Work>
  </rdf:RDF>
 </metadata>
 <defs>
  <style type="text/css">*{stroke-linejoin: round; stroke-linecap: butt}</style>
 </defs>
 <g id="figure_1">
  <g id="patch_1">
   <path d="M 0 192.755906 
L 226.771654 192.755906 
L 226.771654 0 
L 0 0 
L 0 192.755906 
z
" style="fill: none; opacity: 0"/>
  </g>
  <g id="axes_1">
   <g id="patch_2">
    <path d="M 56.692913 136.062992 
L 170.07874 136.062992 
L 170.07874 56.692913 
L 56.692913 56.692913 
L 56.692913 136.062992 
z
" style="fill: none; opacity: 0"/>
   </g>
   <g id="line2d_1">
    <path d="M 61.846815 94.074199 
L 63.950448 89.592984 
L 66.054081 80.807287 
L 68.157714 72.264229 
L 70.261347 72.965844 
L 72.36498 68.983132 
L 74.468614 60.300644 
L 76.572247 61.328052 
L 78.67588 65.04731 
L 80.779513 62.858955 
L 82.883146 68.45797 
L 84.986779 72.016743 
L 87.090412 74.333453 
L 89.194046 86.722069 
L 91.297679 92.191614 
L 93.401312 94.899103 
L 95.504945 102.908233 
L 97.608578 105.028585 
L 99.712211 114.927454 
L 101.815844 121.836642 
L 103.919478 116.958044 
L 106.023111 125.713353 
L 108.126744 126.861296 
L 110.230377 132.455261 
L 112.33401 129.073213 
L 114.437643 125.102352 
L 116.541276 126.068596 
L 118.64491 116.947927 
L 120.748543 114.953697 
L 122.852176 108.100971 
L 124.955809 102.764446 
L 127.059442 88.314081 
L 129.163075 87.831062 
L 131.266709 85.029959 
L 133.370342 73.395314 
L 135.473975 75.209361 
L 137.577608 66.85272 
L 139.681241 71.25055 
L 141.784874 67.908024 
L 143.888507 63.018176 
L 145.992141 62.624021 
L 148.095774 67.072872 
L 150.199407 71.784041 
L 152.30304 77.175179 
L 154.406673 86.56841 
L 156.510306 90.303004 
L 158.613939 95.964986 
L 160.717573 97.623942 
L 162.821206 106.245245 
L 164.924839 118.867746 
" clip-path="url(#pc37a10d0a1)" style="fill: none; stroke: #0080bf; stroke-opacity: 0.9; stroke-width: 0.566929; stroke-linecap: square"/>
    <defs>
     <path id="mf3866ec4b5" d="M 0 1.5 
C 0.397805 1.5 0.77937 1.341951 1.06066 1.06066 
C 1.341951 0.77937 1.5 0.397805 1.5 0 
C 1.5 -0.397805 1.341951 -0.77937 1.06066 -1.06066 
C 0.77937 -1.341951 0.397805 -1.5 0 -1.5 
C -0.397805 -1.5 -0.77937 -1.341951 -1.06066 -1.06066 
C -1.341951 -0.77937 -1.5 -0.397805 -1.5 0 
C -1.5 0.397805 -1.341951 0.77937 -1.06066 1.06066 
C -0.77937 1.341951 -0.397805 1.5 0 1.5 
z
" style="stroke: #0080bf; stroke-opacity: 0.9"/>
    </defs>
    <g clip-path="url(#pc37a10d0a1)">
     <use xlink:href="#mf3866ec4b5" x="61.846815" y="94.074199" style="fill: #0080bf; fill-opacity: 0.9; stroke: #0080bf; stroke-opacity: 0.9"/>
     <use xlink:href="#mf3866ec4b5" x="63.950448" y="89.592984" style="fill: #0080bf; fill-opacity: 0.9; stroke: #0080bf; stroke-opacity: 0.9"/>
     <use xlink:href="#mf3866ec4b5" x="66.054081" y="80.807287" style="fill: #0080bf; fill-opacity: 0.9; stroke: #0080bf; stroke-opacity: 0.9"/>
     <use xlink:href="#mf3866ec4b5" x="68.157714" y="72.264229" style="fill: #0080bf; fill-opacity: 0.9; stroke: #0080bf; stroke-opacity: 0.9"/>
     <use xlink:href="#mf3866ec4b5" x="70.261347" y="72.965844" style="fill: #0080bf; fill-opacity: 0.9; stroke: #0080bf; stroke-opacity: 0.9"/>
     <use xlink:href="#mf3866ec4b5" x="72.36498" y="68.983132" style="fill: #0080bf; fill-opacity: 0.9; stroke: #0080bf; stroke-opacity: 0.9"/>
     <use xlink:href="#mf3866ec4b5" x="74.468614" y="60.300644" style="fill: #0080bf; fill-opacity: 0.9; stroke: #0080bf; stroke-opacity: 0.9"/>
     <use xlink:href="#mf3866ec4b5" x="76.572247" y="61.328052" style="fill: #0080bf; fill-opacity: 0.9; stroke: #0080bf; stroke-opacity: 0.9"/>
     <use xlink:href="#mf3866ec4b5" x="78.67588" y="65.04731" style="fill: #0080bf; fill-opacity: 0.9; stroke: #0080bf; stroke-opacity: 0.9"/>
     <use xlink:href="#mf3866ec4b5" x="80.779513" y="62.858955" style="fill: #0080bf; fill-opacity: 0.9; stroke: #0080bf; stroke-opacity: 0.9"/>
     <use xlink:href="#mf3866ec4b5" x="82.883146" y="68.45797" style="fill: #0080bf; fill-opacity: 0.9; stroke: #0080bf; stroke-opacity: 0.9"/>
     <use xlink:href="#mf3866ec4b5" x="84.986779" y="72.016743" style="fill: #0080bf; fill-opacity: 0.9; stroke: #0080bf; stroke-opacity: 0.9"/>
     <use xlink:href="#mf3866ec4b5" x="87.090412" y="74.333453" style="fill: #0080bf; fill-opacity: 0.9; stroke: #0080bf; stroke-opacity: 0.9"/>
     <use xlink:href="#mf3866ec4b5" x="89.194046" y="86.722069" style="fill: #0080bf; fill-opacity: 0.9; stroke: #0080bf; stroke-opacity: 0.9"/>
     <use xlink:href="#mf3866ec4b5" x="91.297679" y="92.191614" style="fill: #0080bf; fill-opacity: 0.9; stroke: #0080bf; stroke-opacity: 0.9"/>
     <use xlink:href="#mf3866ec4b5" x="93.401312" y="94.899103" style="fill: #0080bf; fill-opacity: 0.9; stroke: #0080bf; stroke-opacity: 0.9"/>
     <use xlink:href="#mf3866ec4b5" x="95.504945" y="102.908233" style="fill: #0080bf; fill-opacity: 0.9; stroke: #0080bf; stroke-opacity: 0.9"/>
     <use xlink:href="#mf3866ec4b5" x="97.608578" y="105.028585" style="fill: #0080bf; fill-opacity: 0.9; stroke: #0080bf; stroke-opacity: 0.9"/>
     <use xlink:href="#mf3866ec4b5" x="99.712211" y="114.927454" style="fill: #0080bf; fill-opacity: 0.9; stroke: #0080bf; stroke-opacity: 0.9"/>
     <use xlink:href="#mf3866ec4b5" x="101.815844" y="121.836642" style="fill: #0080bf; fill-opacity: 0.9; stroke: #0080bf; stroke-opacity: 0.9"/>
     <use xlink:href="#mf3866ec4b5" x="103.919478" y="116.958044" style="fill: #0080bf; fill-opacity: 0.9; stroke: #0080bf; stroke-opacity: 0.9"/>
     <use xlink:href="#mf3866ec4b5" x="106.023111" y="125.713353" style="fill: #0080bf; fill-opacity: 0.9; stroke: #0080bf; stroke-opacity: 0.9"/>
     <use xlink:href="#mf3866ec4b5" x="108.126744" y="126.861296" style="fill: #0080bf; fill-opacity: 0.9; stroke: #0080bf; stroke-opacity: 0.9"/>
     <use xlink:href="#mf3866ec4b5" x="110.230377" y="132.455261" style="fill: #0080bf; fill-opacity: 0.9; stroke: #0080bf; stroke-opacity: 0.9"/>
     <use xlink:href="#mf3866ec4b5" x="112.33401" y="129.073213" style="fill: #0080bf; fill-opacity: 0.9; stroke: #0080bf; stroke-opacity: 0.9"/>
     <use xlink:href="#mf3866ec4b5" x="114.437643" y="125.102352" style="fill: #0080bf; fill-opacity: 0.9; stroke: #0080bf; stroke-opacity: 0.9"/>
     <use xlink:href="#mf3866ec4b5" x="116.541276" y="126.068596" style="fill: #0080bf; fill-opacity: 0.9; stroke: #0080bf; stroke-opacity: 0.9"/>
     <use xlink:href="#mf3866ec4b5" x="118.64491" y="116.947927" style="fill: #0080bf; fill-opacity: 0.9; stroke: #0080bf; stroke-opacity: 0.9"/>
     <use xlink:href="#mf3866ec4b5" x="120.748543" y="114.953697" style="fill: #0080bf; fill-opacity: 0.9; stroke: #0080bf; stroke-opacity: 0.9"/>
     <use xlink:href="#mf3866ec4b5" x="122.852176" y="108.100971" style="fill: #0080bf; fill-opacity: 0.9; stroke: #0080bf; stroke-opacity: 0.9"/>
     <use xlink:href="#mf3866ec4b5" x="124.955809" y="102.764446" style="fill: #0080bf; fill-opacity: 0.9; stroke: #0080bf; stroke-opacity: 0.9"/>
     <use xlink:href="#mf3866ec4b5" x="127.059442" y="88.314081" style="fill: #0080bf; fill-opacity: 0.9; stroke: #0080bf; stroke-opacity: 0.9"/>
     <use xlink:href="#mf3866ec4b5" x="129.163075" y="87.831062" style="fill: #0080bf; fill-opacity: 0.9; stroke: #0080bf; stroke-opacity: 0.9"/>
     <use xlink:href="#mf3866ec4b5" x="131.266709" y="85.029959" style="fill: #0080bf; fill-opacity: 0.9; stroke: #0080bf; stroke-opacity: 0.9"/>
     <use xlink:href="#mf3866ec4b5" x="133.370342" y="73.395314" style="fill: #0080bf; fill-opacity: 0.9; stroke: #0080bf; stroke-opacity: 0.9"/>
     <use xlink:href="#mf3866ec4b5" x="135.473975" y="75.209361" style="fill: #0080bf; fill-opacity: 0.9; stroke: #0080bf; stroke-opacity: 0.9"/>
     <use xlink:href="#mf3866ec4b5" x="137.577608" y="66.85272" style="fill: #0080bf; fill-opacity: 0.9; stroke: #0080bf; stroke-opacity: 0.9"/>
     <use xlink:href="#mf3866ec4b5" x="139.681241" y="71.25055" style="fill: #0080bf; fill-opacity: 0.9; stroke: #0080bf; stroke-opacity: 0.9"/>
     <use xlink:href="#mf3866ec4b5" x="141.784874" y="67.908024" style="fill: #0080bf; fill-opacity: 0.9; stroke: #0080bf; stroke-opacity: 0.9"/>
     <use xlink:href="#mf3866ec4b5" x="143.888507" y="63.018176" style="fill: #0080bf; fill-opacity: 0.9; stroke: #0080bf; stroke-opacity: 0.9"/>
     <use xlink:href="#mf3866ec4b5" x="145.992141" y="62.624021" style="fill: #0080bf; fill-opacity: 0.9; stroke: #0080bf; stroke-opacity: 0.9"/>
     <use xlink:href="#mf3866ec4b5" x="148.095774" y="67.072872" style="fill: #0080bf; fill-opacity: 0.9; stroke: #0080bf; stroke-opacity: 0.9"/>
     <use xlink:href="#mf3866ec4b5" x="150.199407" y="71.784041" style="fill: #0080bf; fill-opacity: 0.9; stroke: #0080bf; stroke-opacity: 0.9"/>
     <use xlink:href="#mf3866ec4b5" x="152.30304" y="77.175179" style="fill: #0080bf; fill-opacity: 0.9; stroke: #0080bf; stroke-opacity: 0.9"/>
     <use xlink:href="#mf3866ec4b5" x="154.406673" y="86.56841" style="fill: #0080bf; fill-opacity: 0.9; stroke: #0080bf; stroke-opacity: 0.9"/>
     <use xlink:href="#mf3866ec4b5" x="156.510306" y="90.303004" style="fill: #0080bf; fill-opacity: 0.9; stroke: #0080bf; stroke-opacity: 0.9"/>
     <use xlink:href="#mf3866ec4b5" x="158.613939" y="95.964986" style="fill: #0080bf; fill-opacity: 0.9; stroke: #0080bf; stroke-opacity: 0.9"/>
     <use xlink:href="#mf3866ec4b5" x="160.717573" y="97.623942" style="fill: #0080bf; fill-opacity: 0.9; stroke: #0080bf; stroke-opacity: 0.9"/>
     <use xlink:href="#mf3866ec4b5" x="162.821206" y="106.245245" style="fill: #0080bf; fill-opacity: 0.9; stroke: #0080bf; stroke-opacity: 0.9"/>
     <use xlink:href="#mf3866ec4b5" x="164.924839" y="118.867746" style="fill: #0080bf; fill-opacity: 0.9; stroke: #0080bf; stroke-opacity: 0.9"/>
    </g>
   </g>
   <g id="matplotlib.axis_1">
    <g id="xtick_1">
     <g id="line2d_2">
      <defs>
       <path id="m180fbb5cd1" d="M 0 0 
L 0 2.267717 
" style="stroke: #000000; stroke-width: 0.566929"/>
      </defs>
      <g>
       <use xlink:href="#m180fbb5cd1" x="61.846815" y="136.062992" style="stroke: #000000; stroke-width: 0.566929"/>
      </g>
     </g>
     <g id="text_1">
      <!-- 0 -->
      <g transform="translate(59.900486 144.841177) scale(0.07 -0.07)">
       <defs>
        <path id="ArialMT-30" d="M 266 2259 
Q 266 3072 433 3567 
Q 600 4063 929 4331 
Q 1259 4600 1759 4600 
Q 2128 4600 2406 4451 
Q 2684 4303 2865 4023 
Q 3047 3744 3150 3342 
Q 3253 2941 3253 2259 
Q 3253 1453 3087 958 
Q 2922 463 2592 192 
Q 2263 -78 1759 -78 
Q 1097 -78 719 397 
Q 266 969 266 2259 
z
M 844 2259 
Q 844 1131 1108 757 
Q 1372 384 1759 384 
Q 2147 384 2411 759 
Q 2675 1134 2675 2259 
Q 2675 3391 2411 3762 
Q 2147 4134 1753 4134 
Q 1366 4134 1134 3806 
Q 844 3388 844 2259 
z
" transform="scale(0.015625)"/>
       </defs>
       <use xlink:href="#ArialMT-30"/>
      </g>
     </g>
    </g>
    <g id="xtick_2">
     <g id="line2d_3">
      <g>
       <use xlink:href="#m180fbb5cd1" x="103.078024" y="136.062992" style="stroke: #000000; stroke-width: 0.566929"/>
      </g>
     </g>
     <g id="text_2">
      <!-- 4 -->
      <g transform="translate(101.131696 144.841177) scale(0.07 -0.07)">
       <defs>
        <path id="ArialMT-34" d="M 2069 0 
L 2069 1097 
L 81 1097 
L 81 1613 
L 2172 4581 
L 2631 4581 
L 2631 1613 
L 3250 1613 
L 3250 1097 
L 2631 1097 
L 2631 0 
L 2069 0 
z
M 2069 1613 
L 2069 3678 
L 634 1613 
L 2069 1613 
z
" transform="scale(0.015625)"/>
       </defs>
       <use xlink:href="#ArialMT-34"/>
      </g>
     </g>
    </g>
    <g id="xtick_3">
     <g id="line2d_4">
      <g>
       <use xlink:href="#m180fbb5cd1" x="144.309234" y="136.062992" style="stroke: #000000; stroke-width: 0.566929"/>
      </g>
     </g>
     <g id="text_3">
      <!-- 8 -->
      <g transform="translate(142.362906 144.841177) scale(0.07 -0.07)">
       <defs>
        <path id="ArialMT-38" d="M 1131 2484 
Q 781 2613 612 2850 
Q 444 3088 444 3419 
Q 444 3919 803 4259 
Q 1163 4600 1759 4600 
Q 2359 4600 2725 4251 
Q 3091 3903 3091 3403 
Q 3091 3084 2923 2848 
Q 2756 2613 2416 2484 
Q 2838 2347 3058 2040 
Q 3278 1734 3278 1309 
Q 3278 722 2862 322 
Q 2447 -78 1769 -78 
Q 1091 -78 675 323 
Q 259 725 259 1325 
Q 259 1772 486 2073 
Q 713 2375 1131 2484 
z
M 1019 3438 
Q 1019 3113 1228 2906 
Q 1438 2700 1772 2700 
Q 2097 2700 2305 2904 
Q 2513 3109 2513 3406 
Q 2513 3716 2298 3927 
Q 2084 4138 1766 4138 
Q 1444 4138 1231 3931 
Q 1019 3725 1019 3438 
z
M 838 1322 
Q 838 1081 952 856 
Q 1066 631 1291 507 
Q 1516 384 1775 384 
Q 2178 384 2440 643 
Q 2703 903 2703 1303 
Q 2703 1709 2433 1975 
Q 2163 2241 1756 2241 
Q 1359 2241 1098 1978 
Q 838 1716 838 1322 
z
" transform="scale(0.015625)"/>
       </defs>
       <use xlink:href="#ArialMT-38"/>
      </g>
     </g>
    </g>
    <g id="text_4">
     <!-- x -->
     <g transform="translate(111.635827 152.742896) scale(0.07 -0.07)">
      <defs>
       <path id="ArialMT-78" d="M 47 0 
L 1259 1725 
L 138 3319 
L 841 3319 
L 1350 2541 
Q 1494 2319 1581 2169 
Q 1719 2375 1834 2534 
L 2394 3319 
L 3066 3319 
L 1919 1756 
L 3153 0 
L 2463 0 
L 1781 1031 
L 1600 1309 
L 728 0 
L 47 0 
z
" transform="scale(0.015625)"/>
      </defs>
      <use xlink:href="#ArialMT-78"/>
     </g>
    </g>
   </g>
   <g id="matplotlib.axis_2">
    <g id="ytick_1">
     <g id="line2d_5">
      <defs>
       <path id="m9c319406b6" d="M 0 0 
L -2.267717 0 
" style="stroke: #000000; stroke-width: 0.566929"/>
      </defs>
      <g>
       <use xlink:href="#m9c319406b6" x="56.692913" y="127.873152" style="stroke: #000000; stroke-width: 0.566929"/>
      </g>
     </g>
     <g id="text_5">
      <!-- −1 -->
      <g transform="translate(44.944103 130.378387) scale(0.07 -0.07)">
       <defs>
        <path id="ArialMT-2212" d="M 3381 1997 
L 356 1997 
L 356 2522 
L 3381 2522 
L 3381 1997 
z
" transform="scale(0.015625)"/>
        <path id="ArialMT-31" d="M 2384 0 
L 1822 0 
L 1822 3584 
Q 1619 3391 1289 3197 
Q 959 3003 697 2906 
L 697 3450 
Q 1169 3672 1522 3987 
Q 1875 4303 2022 4600 
L 2384 4600 
L 2384 0 
z
" transform="scale(0.015625)"/>
       </defs>
       <use xlink:href="#ArialMT-2212"/>
       <use xlink:href="#ArialMT-31" transform="translate(58.398438 0)"/>
      </g>
     </g>
    </g>
    <g id="ytick_2">
     <g id="line2d_6">
      <g>
       <use xlink:href="#m9c319406b6" x="56.692913" y="95.673597" style="stroke: #000000; stroke-width: 0.566929"/>
      </g>
     </g>
     <g id="text_6">
      <!-- 0 -->
      <g transform="translate(49.032541 98.178831) scale(0.07 -0.07)">
       <use xlink:href="#ArialMT-30"/>
      </g>
     </g>
    </g>
    <g id="ytick_3">
     <g id="line2d_7">
      <g>
       <use xlink:href="#m9c319406b6" x="56.692913" y="63.474041" style="stroke: #000000; stroke-width: 0.566929"/>
      </g>
     </g>
     <g id="text_7">
      <!-- 1 -->
      <g transform="translate(49.032541 65.979276) scale(0.07 -0.07)">
       <use xlink:href="#ArialMT-31"/>
      </g>
     </g>
    </g>
    <g id="text_8">
     <!-- y -->
     <g transform="translate(41.970822 98.127953) rotate(-90) scale(0.07 -0.07)">
      <defs>
       <path id="ArialMT-79" d="M 397 -1278 
L 334 -750 
Q 519 -800 656 -800 
Q 844 -800 956 -737 
Q 1069 -675 1141 -563 
Q 1194 -478 1313 -144 
Q 1328 -97 1363 -6 
L 103 3319 
L 709 3319 
L 1400 1397 
Q 1534 1031 1641 628 
Q 1738 1016 1872 1384 
L 2581 3319 
L 3144 3319 
L 1881 -56 
Q 1678 -603 1566 -809 
Q 1416 -1088 1222 -1217 
Q 1028 -1347 759 -1347 
Q 597 -1347 397 -1278 
z
" transform="scale(0.015625)"/>
      </defs>
      <use xlink:href="#ArialMT-79"/>
     </g>
    </g>
   </g>
   <g id="text_9">
    <!-- Dataset 1 -->
    <g transform="translate(96.265827 50.692913) scale(0.08 -0.08)">
     <defs>
      <path id="ArialMT-44" d="M 494 0 
L 494 4581 
L 2072 4581 
Q 2606 4581 2888 4516 
Q 3281 4425 3559 4188 
Q 3922 3881 4101 3404 
Q 4281 2928 4281 2316 
Q 4281 1794 4159 1391 
Q 4038 988 3847 723 
Q 3656 459 3429 307 
Q 3203 156 2883 78 
Q 2563 0 2147 0 
L 494 0 
z
M 1100 541 
L 2078 541 
Q 2531 541 2789 625 
Q 3047 709 3200 863 
Q 3416 1078 3536 1442 
Q 3656 1806 3656 2325 
Q 3656 3044 3420 3430 
Q 3184 3816 2847 3947 
Q 2603 4041 2063 4041 
L 1100 4041 
L 1100 541 
z
" transform="scale(0.015625)"/>
      <path id="ArialMT-61" d="M 2588 409 
Q 2275 144 1986 34 
Q 1697 -75 1366 -75 
Q 819 -75 525 192 
Q 231 459 231 875 
Q 231 1119 342 1320 
Q 453 1522 633 1644 
Q 813 1766 1038 1828 
Q 1203 1872 1538 1913 
Q 2219 1994 2541 2106 
Q 2544 2222 2544 2253 
Q 2544 2597 2384 2738 
Q 2169 2928 1744 2928 
Q 1347 2928 1158 2789 
Q 969 2650 878 2297 
L 328 2372 
Q 403 2725 575 2942 
Q 747 3159 1072 3276 
Q 1397 3394 1825 3394 
Q 2250 3394 2515 3294 
Q 2781 3194 2906 3042 
Q 3031 2891 3081 2659 
Q 3109 2516 3109 2141 
L 3109 1391 
Q 3109 606 3145 398 
Q 3181 191 3288 0 
L 2700 0 
Q 2613 175 2588 409 
z
M 2541 1666 
Q 2234 1541 1622 1453 
Q 1275 1403 1131 1340 
Q 988 1278 909 1158 
Q 831 1038 831 891 
Q 831 666 1001 516 
Q 1172 366 1500 366 
Q 1825 366 2078 508 
Q 2331 650 2450 897 
Q 2541 1088 2541 1459 
L 2541 1666 
z
" transform="scale(0.015625)"/>
      <path id="ArialMT-74" d="M 1650 503 
L 1731 6 
Q 1494 -44 1306 -44 
Q 1000 -44 831 53 
Q 663 150 594 308 
Q 525 466 525 972 
L 525 2881 
L 113 2881 
L 113 3319 
L 525 3319 
L 525 4141 
L 1084 4478 
L 1084 3319 
L 1650 3319 
L 1650 2881 
L 1084 2881 
L 1084 941 
Q 1084 700 1114 631 
Q 1144 563 1211 522 
Q 1278 481 1403 481 
Q 1497 481 1650 503 
z
" transform="scale(0.015625)"/>
      <path id="ArialMT-73" d="M 197 991 
L 753 1078 
Q 800 744 1014 566 
Q 1228 388 1613 388 
Q 2000 388 2187 545 
Q 2375 703 2375 916 
Q 2375 1106 2209 1216 
Q 2094 1291 1634 1406 
Q 1016 1563 777 1677 
Q 538 1791 414 1992 
Q 291 2194 291 2438 
Q 291 2659 392 2848 
Q 494 3038 669 3163 
Q 800 3259 1026 3326 
Q 1253 3394 1513 3394 
Q 1903 3394 2198 3281 
Q 2494 3169 2634 2976 
Q 2775 2784 2828 2463 
L 2278 2388 
Q 2241 2644 2061 2787 
Q 1881 2931 1553 2931 
Q 1166 2931 1000 2803 
Q 834 2675 834 2503 
Q 834 2394 903 2306 
Q 972 2216 1119 2156 
Q 1203 2125 1616 2013 
Q 2213 1853 2448 1751 
Q 2684 1650 2818 1456 
Q 2953 1263 2953 975 
Q 2953 694 2789 445 
Q 2625 197 2315 61 
Q 2006 -75 1616 -75 
Q 969 -75 630 194 
Q 291 463 197 991 
z
" transform="scale(0.015625)"/>
      <path id="ArialMT-65" d="M 2694 1069 
L 3275 997 
Q 3138 488 2766 206 
Q 2394 -75 1816 -75 
Q 1088 -75 661 373 
Q 234 822 234 1631 
Q 234 2469 665 2931 
Q 1097 3394 1784 3394 
Q 2450 3394 2872 2941 
Q 3294 2488 3294 1666 
Q 3294 1616 3291 1516 
L 816 1516 
Q 847 969 1125 678 
Q 1403 388 1819 388 
Q 2128 388 2347 550 
Q 2566 713 2694 1069 
z
M 847 1978 
L 2700 1978 
Q 2663 2397 2488 2606 
Q 2219 2931 1791 2931 
Q 1403 2931 1139 2672 
Q 875 2413 847 1978 
z
" transform="scale(0.015625)"/>
      <path id="ArialMT-20" transform="scale(0.015625)"/>
     </defs>
     <use xlink:href="#ArialMT-44"/>
     <use xlink:href="#ArialMT-61" transform="translate(72.216797 0)"/>
     <use xlink:href="#ArialMT-74" transform="translate(127.832031 0)"/>
     <use xlink:href="#ArialMT-61" transform="translate(155.615234 0)"/>
     <use xlink:href="#ArialMT-73" transform="translate(211.230469 0)"/>
     <use xlink:href="#ArialMT-65" transform="translate(261.230469 0)"/>
     <use xlink:href="#ArialMT-74" transform="translate(316.845703 0)"/>
     <use xlink:href="#ArialMT-20" transform="translate(344.628906 0)"/>
     <use xlink:href="#ArialMT-31" transform="translate(372.412109 0)"/>
    </g>
   </g>
   <g id="patch_3">
    <path d="M 56.692913 136.062992 
L 56.692913 56.692913 
" style="fill: none; stroke: #404040; stroke-width: 0.566929; stroke-linejoin: miter; stroke-linecap: square"/>
   </g>
   <g id="patch_4">
    <path d="M 56.692913 136.062992 
L 170.07874 136.062992 
" style="fill: none; stroke: #404040; stroke-width: 0.566929; stroke-linejoin: miter; stroke-linecap: square"/>
   </g>
  </g>
 </g>
 <defs>
  <clipPath id="pc37a10d0a1">
   <rect x="56.692913" y="56.692913" width="113.385827" height="79.370079"/>
  </clipPath>
 </defs>
</svg>
